<?xml version="1.0" standalone="no"?>
<!DOCTYPE svg PUBLIC "-//W3C//DTD SVG 20010904//EN"
 "http://www.w3.org/TR/2001/REC-SVG-20010904/DTD/svg10.dtd">
<svg version="1.0" xmlns="http://www.w3.org/2000/svg"
 width="700.000000pt" height="700.000000pt" viewBox="0 0 700.000000 700.000000"
 preserveAspectRatio="xMidYMid meet">
<metadata>
Created by potrace 1.11, written by Peter Selinger 2001-2013
</metadata>
<g transform="translate(0.000000,700.000000) scale(0.100000,-0.100000)"
fill="#000000" stroke="none">
<path d="M969 6467 c-175 -25 -339 -154 -403 -317 -19 -48 -24 -65 -34 -120
-3 -19 -6 -1162 -6 -2540 0 -2047 2 -2515 13 -2560 47 -192 213 -353 407 -393
47 -9 620 -12 2570 -11 2414 1 2511 1 2574 19 118 34 229 115 296 215 39 59
50 83 71 155 16 56 17 218 17 2590 l0 2530 -23 70 c-61 180 -182 295 -376 356
-32 10 -551 13 -2546 14 -1378 0 -2530 -3 -2560 -8z m4981 -1042 l0 -525
-2450 0 -2450 0 0 525 0 525 2450 0 2450 0 0 -525z m0 -2625 l0 -1750 -2450 0
-2450 0 0 1750 0 1750 2450 0 2450 0 0 -1750z"/>
<path d="M3850 5425 l0 -175 175 0 175 0 0 175 0 175 -175 0 -175 0 0 -175z"/>
<path d="M4550 5425 l0 -175 175 0 175 0 0 175 0 175 -175 0 -175 0 0 -175z"/>
<path d="M5250 5425 l0 -175 175 0 175 0 0 175 0 175 -175 0 -175 0 0 -175z"/>
<path d="M1929 3498 c-1 -2 -2 -198 -3 -435 -1 -283 2 -434 9 -436 5 -2 124
-3 263 -2 l252 1 0 -88 0 -88 -263 0 -262 0 0 -172 0 -173 305 0 305 0 55 26
c82 39 135 90 172 167 33 66 33 67 35 229 1 137 -1 170 -17 213 -31 85 -90
152 -170 194 -61 32 -97 39 -220 41 -58 2 -107 3 -110 4 -3 0 -5 38 -5 84 l0
82 263 3 262 2 0 175 0 175 -435 0 c-239 0 -436 -1 -436 -2z"/>
<path d="M3382 3485 c-197 -44 -359 -214 -398 -415 -13 -67 -11 -472 3 -545
29 -157 141 -302 284 -370 41 -19 88 -37 104 -40 73 -14 152 -16 213 -5 66 11
164 47 170 62 2 4 10 8 18 8 8 0 48 33 87 73 77 77 126 160 148 252 17 71 19
482 3 568 -35 185 -170 337 -358 404 -60 21 -199 25 -274 8z m216 -368 c68
-45 76 -74 77 -302 1 -211 -4 -251 -38 -297 -26 -34 -92 -68 -135 -68 -74 0
-152 60 -169 128 -12 51 -9 430 5 463 41 100 168 137 260 76z"/>
<path d="M4200 3326 l0 -176 262 -2 263 -3 0 -85 0 -84 -115 -2 c-131 -1 -176
-11 -240 -52 -64 -41 -106 -88 -138 -152 l-27 -55 -3 -307 -3 -308 438 0 438
0 0 175 0 175 -262 0 -263 0 0 89 0 88 98 -1 c168 -3 241 21 328 110 77 79 98
143 99 313 0 75 -4 156 -11 181 -26 106 -94 189 -193 238 l-56 27 -307 3 -308
3 0 -175z"/>
</g>
</svg>
